<?xml version="1.0" encoding="utf-8"?>
<!-- Generator: Adobe Illustrator 21.0.1, SVG Export Plug-In . SVG Version: 6.00 Build 0)  -->
<svg version="1.1" id="Layer_1" xmlns="http://www.w3.org/2000/svg" xmlns:xlink="http://www.w3.org/1999/xlink" x="0px" y="0px"
	 width="269px" height="247.3px" viewBox="0 0 269 247.3" style="enable-background:new 0 0 269 247.3;" xml:space="preserve">
<style type="text/css">
	.st0{fill:#FFAB40;}
	.st1{fill:none;stroke:#3F3F3F;stroke-miterlimit:10;}
	.st2{enable-background:new    ;}
</style>
<circle class="st0" cx="136.9" cy="152.7" r="11"/>
<polygon class="st1" points="136.8,23.4 22.6,221.1 250.9,221.1 "/>
<g class="st2">
	<path d="M130.1,12.7h-1.7l-1.2-7.8l-1.2,7.8h-1.8l-1.4-10.4h1.3l1.1,9l1.3-7.7h1.6l1.2,7.7l1.2-9h1.2L130.1,12.7z"/>
	<path d="M134.5,5.9c0.3-0.4,0.7-0.7,1.1-0.9c0.5-0.2,0.9-0.3,1.4-0.3c1.5,0,2.2,0.8,2.2,2.4v5.8H138V7c0-0.5-0.1-0.8-0.3-1
		c-0.2-0.2-0.6-0.3-1.1-0.3c-0.4,0-0.8,0.1-1.2,0.4c-0.4,0.3-0.7,0.6-0.9,0.9v5.8h-1.3V1.6l1.3-0.1V5.9z"/>
	<path d="M147.9,5.7c0.6,0.7,0.9,1.7,0.9,3c0,1.2-0.3,2.2-0.9,3s-1.4,1.1-2.5,1.1c-1.1,0-1.9-0.4-2.5-1.1s-0.9-1.7-0.9-3
		c0-1.3,0.3-2.3,0.9-3c0.6-0.8,1.4-1.1,2.5-1.1S147.3,5,147.9,5.7z M143.8,6.4c-0.3,0.5-0.5,1.3-0.5,2.3s0.2,1.8,0.5,2.3
		s0.9,0.8,1.5,0.8c0.7,0,1.2-0.3,1.5-0.8s0.5-1.3,0.5-2.3c0-1-0.2-1.8-0.5-2.3c-0.3-0.5-0.8-0.8-1.5-0.8
		C144.6,5.7,144.1,5.9,143.8,6.4z"/>
</g>
<g class="st2">
	<path d="M240.3,239.7h-1.7l-1.2-7.8l-1.2,7.8h-1.8l-1.4-10.4h1.3l1.1,9l1.3-7.7h1.6l1.2,7.7l1.2-9h1.2L240.3,239.7z"/>
	<path d="M244.7,232.9c0.3-0.4,0.7-0.7,1.1-0.9c0.5-0.2,0.9-0.3,1.4-0.3c1.5,0,2.2,0.8,2.2,2.4v5.8h-1.3V234c0-0.5-0.1-0.8-0.3-1
		c-0.2-0.2-0.6-0.3-1.1-0.3c-0.4,0-0.8,0.1-1.2,0.4c-0.4,0.3-0.7,0.6-0.9,0.9v5.8h-1.3v-11.1l1.3-0.1V232.9z"/>
	<path d="M258.3,238.7c0.1,0.1,0.3,0.3,0.5,0.3l-0.3,0.9c-0.8-0.1-1.3-0.5-1.4-1.1c-0.3,0.4-0.6,0.6-1.1,0.8
		c-0.4,0.2-0.9,0.3-1.4,0.3c-0.8,0-1.4-0.2-1.9-0.7s-0.7-1-0.7-1.8c0-0.8,0.3-1.4,1-1.9c0.6-0.4,1.6-0.7,2.8-0.7h1.2v-0.6
		c0-0.6-0.2-1-0.5-1.2s-0.8-0.4-1.4-0.4c-0.6,0-1.3,0.1-2.1,0.4l-0.3-1c0.9-0.3,1.8-0.5,2.6-0.5c1,0,1.7,0.2,2.2,0.7
		c0.5,0.5,0.8,1.1,0.8,1.9v3.8C258.1,238.3,258.2,238.5,258.3,238.7z M256,238.6c0.4-0.2,0.7-0.5,0.9-0.8v-2h-1.1
		c-0.8,0-1.5,0.1-1.8,0.4c-0.4,0.3-0.6,0.7-0.6,1.2c0,1,0.5,1.5,1.5,1.5C255.2,238.9,255.6,238.8,256,238.6z"/>
	<path d="M266.8,239.7c-0.4,0.1-0.8,0.2-1.2,0.2c-0.8,0-1.5-0.2-2-0.7c-0.5-0.4-0.7-1-0.7-1.7v-4.7h-1.8v-1h1.8V230l1.3-0.2v1.9h2.8
		l-0.2,1h-2.6v4.7c0,0.5,0.1,0.8,0.4,1c0.2,0.2,0.6,0.3,1.2,0.3c0.5,0,1-0.1,1.5-0.4l0.5,0.9C267.5,239.5,267.2,239.6,266.8,239.7z"
		/>
</g>
<g class="st2">
	<path d="M7.4,239.7H5.7l-1.2-7.8l-1.2,7.8H1.5l-1.4-10.4h1.3l1.1,9l1.3-7.7h1.6l1.2,7.7l1.2-9H9L7.4,239.7z"/>
	<path d="M11.8,232.9c0.3-0.4,0.7-0.7,1.1-0.9c0.5-0.2,0.9-0.3,1.4-0.3c1.5,0,2.2,0.8,2.2,2.4v5.8h-1.3V234c0-0.5-0.1-0.8-0.3-1
		c-0.2-0.2-0.6-0.3-1.1-0.3c-0.4,0-0.8,0.1-1.2,0.4c-0.4,0.3-0.7,0.6-0.9,0.9v5.8h-1.3v-11.1l1.3-0.1V232.9z"/>
	<path d="M21.3,238.2c0.4,0.4,1,0.7,1.6,0.7c0.4,0,0.8-0.1,1.1-0.2c0.3-0.1,0.7-0.3,1-0.5l0.6,0.8c-0.4,0.3-0.8,0.5-1.3,0.7
		c-0.5,0.2-1,0.2-1.4,0.2c-1.1,0-2-0.4-2.7-1.1c-0.6-0.7-1-1.8-1-3c0-0.8,0.1-1.5,0.4-2.1s0.7-1.1,1.2-1.5c0.5-0.4,1.1-0.5,1.8-0.5
		c1,0,1.8,0.3,2.4,1s0.9,1.7,0.9,2.9c0,0.2,0,0.5,0,0.7h-5.3C20.6,237.1,20.9,237.7,21.3,238.2z M21.2,233.3
		c-0.4,0.4-0.6,1.1-0.6,1.9h4.1c0-0.8-0.2-1.5-0.5-1.9c-0.4-0.4-0.8-0.7-1.4-0.7S21.6,232.9,21.2,233.3z"/>
	<path d="M35.1,231.8l-0.2,2.7h-1v-1.7h-0.1c-1.2,0-2.1,0.9-2.6,2.6v3.3h1.6v1h-4.1v-1H30v-6h-1.3v-1h2.2l0.2,1.9
		c0.3-0.7,0.7-1.2,1.2-1.5c0.4-0.3,1-0.5,1.7-0.5C34.3,231.6,34.7,231.7,35.1,231.8z"/>
	<path d="M39.4,238.2c0.4,0.4,1,0.7,1.6,0.7c0.4,0,0.8-0.1,1.1-0.2c0.3-0.1,0.7-0.3,1-0.5l0.6,0.8c-0.4,0.3-0.8,0.5-1.3,0.7
		c-0.5,0.2-1,0.2-1.4,0.2c-1.1,0-2-0.4-2.7-1.1c-0.6-0.7-1-1.8-1-3c0-0.8,0.1-1.5,0.4-2.1s0.7-1.1,1.2-1.5c0.5-0.4,1.1-0.5,1.8-0.5
		c1,0,1.8,0.3,2.4,1s0.9,1.7,0.9,2.9c0,0.2,0,0.5,0,0.7h-5.3C38.7,237.1,38.9,237.7,39.4,238.2z M39.3,233.3
		c-0.4,0.4-0.6,1.1-0.6,1.9h4.1c0-0.8-0.2-1.5-0.5-1.9c-0.4-0.4-0.8-0.7-1.4-0.7S39.7,232.9,39.3,233.3z"/>
</g>
</svg>
