<?xml version="1.0" encoding="utf-8"?>
<!-- Generator: Adobe Illustrator 21.0.1, SVG Export Plug-In . SVG Version: 6.00 Build 0)  -->
<svg version="1.1" id="Layer_1" xmlns="http://www.w3.org/2000/svg" xmlns:xlink="http://www.w3.org/1999/xlink" x="0px" y="0px"
	 width="269px" height="247.3px" viewBox="0 0 269 247.3" style="enable-background:new 0 0 269 247.3;" xml:space="preserve">
<style type="text/css">
	.st0{fill:#FFAB40;}
	.st1{fill:none;stroke:#3F3F3F;stroke-miterlimit:10;}
	.st2{enable-background:new    ;}
</style>
<circle class="st0" cx="136.9" cy="152.7" r="11"/>
<polygon class="st1" points="136.8,23.4 22.6,221.1 250.9,221.1 "/>
<g class="st2">
	<path d="M130.1,12.7h-1.7l-1.2-7.8l-1.2,7.8h-1.8l-1.4-10.4h1.3l1.1,9l1.3-7.7h1.6l1.2,7.7l1.2-9h1.2L130.1,12.7z"/>
	<path d="M134.5,5.9c0.3-0.4,0.7-0.7,1.1-0.9c0.5-0.2,0.9-0.3,1.4-0.3c1.5,0,2.2,0.8,2.2,2.4v5.8H138V7c0-0.5-0.1-0.8-0.3-1
		s-0.6-0.3-1.1-0.3c-0.4,0-0.8,0.1-1.2,0.4s-0.7,0.6-0.9,0.9v5.8h-1.3V1.6l1.3-0.1V5.9z"/>
	<path d="M147.9,5.7c0.6,0.7,0.9,1.7,0.9,3c0,1.2-0.3,2.2-0.9,3s-1.4,1.1-2.5,1.1s-1.9-0.4-2.5-1.1s-0.9-1.7-0.9-3s0.3-2.3,0.9-3
		c0.6-0.8,1.4-1.1,2.5-1.1S147.3,5,147.9,5.7z M143.8,6.4c-0.3,0.5-0.5,1.3-0.5,2.3s0.2,1.8,0.5,2.3s0.9,0.8,1.5,0.8
		c0.7,0,1.2-0.3,1.5-0.8s0.5-1.3,0.5-2.3s-0.2-1.8-0.5-2.3s-0.8-0.8-1.5-0.8C144.6,5.7,144.1,5.9,143.8,6.4z"/>
</g>
<g class="st2">
	<path d="M240.3,239.7h-1.7l-1.2-7.8l-1.2,7.8h-1.8l-1.4-10.4h1.3l1.1,9l1.3-7.7h1.6l1.2,7.7l1.2-9h1.2L240.3,239.7z"/>
	<path d="M244.7,232.9c0.3-0.4,0.7-0.7,1.1-0.9c0.5-0.2,0.9-0.3,1.4-0.3c1.5,0,2.2,0.8,2.2,2.4v5.8h-1.3V234c0-0.5-0.1-0.8-0.3-1
		s-0.6-0.3-1.1-0.3c-0.4,0-0.8,0.1-1.2,0.4c-0.4,0.3-0.7,0.6-0.9,0.9v5.8h-1.3v-11.1l1.3-0.1v4.3H244.7z"/>
	<path d="M258.3,238.7c0.1,0.1,0.3,0.3,0.5,0.3l-0.3,0.9c-0.8-0.1-1.3-0.5-1.4-1.1c-0.3,0.4-0.6,0.6-1.1,0.8
		c-0.4,0.2-0.9,0.3-1.4,0.3c-0.8,0-1.4-0.2-1.9-0.7s-0.7-1-0.7-1.8s0.3-1.4,1-1.9c0.6-0.4,1.6-0.7,2.8-0.7h1.2v-0.6
		c0-0.6-0.2-1-0.5-1.2s-0.8-0.4-1.4-0.4c-0.6,0-1.3,0.1-2.1,0.4l-0.3-1c0.9-0.3,1.8-0.5,2.6-0.5c1,0,1.7,0.2,2.2,0.7
		s0.8,1.1,0.8,1.9v3.8C258.1,238.3,258.2,238.5,258.3,238.7z M256,238.6c0.4-0.2,0.7-0.5,0.9-0.8v-2h-1.1c-0.8,0-1.5,0.1-1.8,0.4
		c-0.4,0.3-0.6,0.7-0.6,1.2c0,1,0.5,1.5,1.5,1.5C255.2,238.9,255.6,238.8,256,238.6z"/>
	<path d="M266.8,239.7c-0.4,0.1-0.8,0.2-1.2,0.2c-0.8,0-1.5-0.2-2-0.7c-0.5-0.4-0.7-1-0.7-1.7v-4.7h-1.8v-1h1.8V230l1.3-0.2v1.9h2.8
		l-0.2,1h-2.6v4.7c0,0.5,0.1,0.8,0.4,1c0.2,0.2,0.6,0.3,1.2,0.3c0.5,0,1-0.1,1.5-0.4l0.5,0.9C267.5,239.5,267.2,239.6,266.8,239.7z"
		/>
</g>
<g class="st2">
	<path d="M7.4,239.7H5.7l-1.2-7.8l-1.2,7.8H1.5l-1.4-10.4h1.3l1.1,9l1.3-7.7h1.6l1.2,7.7l1.2-9H9L7.4,239.7z"/>
	<path d="M11.8,232.9c0.3-0.4,0.7-0.7,1.1-0.9c0.5-0.2,0.9-0.3,1.4-0.3c1.5,0,2.2,0.8,2.2,2.4v5.8h-1.3V234c0-0.5-0.1-0.8-0.3-1
		s-0.6-0.3-1.1-0.3c-0.4,0-0.8,0.1-1.2,0.4c-0.4,0.3-0.7,0.6-0.9,0.9v5.8h-1.3v-11.1l1.3-0.1v4.3H11.8z"/>
	<path d="M21.3,238.2c0.4,0.4,1,0.7,1.6,0.7c0.4,0,0.8-0.1,1.1-0.2c0.3-0.1,0.7-0.3,1-0.5l0.6,0.8c-0.4,0.3-0.8,0.5-1.3,0.7
		s-1,0.2-1.4,0.2c-1.1,0-2-0.4-2.7-1.1c-0.6-0.7-1-1.8-1-3c0-0.8,0.1-1.5,0.4-2.1s0.7-1.1,1.2-1.5s1.1-0.5,1.8-0.5
		c1,0,1.8,0.3,2.4,1s0.9,1.7,0.9,2.9c0,0.2,0,0.5,0,0.7h-5.3C20.6,237.1,20.9,237.7,21.3,238.2z M21.2,233.3
		c-0.4,0.4-0.6,1.1-0.6,1.9h4.1c0-0.8-0.2-1.5-0.5-1.9c-0.4-0.4-0.8-0.7-1.4-0.7S21.6,232.9,21.2,233.3z"/>
	<path d="M35.1,231.8l-0.2,2.7h-1v-1.7h-0.1c-1.2,0-2.1,0.9-2.6,2.6v3.3h1.6v1h-4.1v-1H30v-6h-1.3v-1h2.2l0.2,1.9
		c0.3-0.7,0.7-1.2,1.2-1.5c0.4-0.3,1-0.5,1.7-0.5C34.3,231.6,34.7,231.7,35.1,231.8z"/>
	<path d="M39.4,238.2c0.4,0.4,1,0.7,1.6,0.7c0.4,0,0.8-0.1,1.1-0.2c0.3-0.1,0.7-0.3,1-0.5l0.6,0.8c-0.4,0.3-0.8,0.5-1.3,0.7
		s-1,0.2-1.4,0.2c-1.1,0-2-0.4-2.7-1.1c-0.6-0.7-1-1.8-1-3c0-0.8,0.1-1.5,0.4-2.1s0.7-1.1,1.2-1.5s1.1-0.5,1.8-0.5
		c1,0,1.8,0.3,2.4,1s0.9,1.7,0.9,2.9c0,0.2,0,0.5,0,0.7h-5.3C38.7,237.1,38.9,237.7,39.4,238.2z M39.3,233.3
		c-0.4,0.4-0.6,1.1-0.6,1.9h4.1c0-0.8-0.2-1.5-0.5-1.9c-0.4-0.4-0.8-0.7-1.4-0.7S39.7,232.9,39.3,233.3z"/>
</g>
<g>
	<path class="st0" d="M31.7,175.2c-1.1,2.2-3.1,4.1-6.2,5.6l-3.1,1.5l4.5,9l-4.2,2.1l-12.5-25.2l7-3.5c3.2-1.6,6.1-2.2,8.5-1.7
		c2.4,0.5,4.3,2,5.6,4.6C32.6,170.4,32.8,173,31.7,175.2z M19,167.8l-3.1,1.5l4.9,9.8l3.1-1.5c1.7-0.8,2.8-1.9,3.4-3.1
		s0.4-2.8-0.5-4.6C25.2,166.6,22.6,166,19,167.8z"/>
	<path class="st0" d="M32.9,156.9l4.2-2.1l10.8,21.6l11.3-5.6l1.3,3.8l-15,7.5L32.9,156.9z"/>
	<path class="st0" d="M66.3,164.1l1.3,6.9l-4.3,2.2L58.8,144l5.3-2.6l20.5,21.2l-4.5,2.2l-4.8-5.2L66.3,164.1z M72.8,156.8L62.9,146
		l2.6,14.3L72.8,156.8z"/>
	<path class="st0" d="M89.7,128.8c1.4-0.2,2.8-0.1,4.3,0.3l-0.9,3.7c-2.1-0.5-4.2-0.2-6.1,0.7c-2,1-3.3,2.6-3.8,4.8
		c-0.5,2.2,0.1,5,1.7,8.3c1.6,3.3,3.5,5.4,5.5,6.4c2,0.9,4.1,0.9,6.2-0.2c1.2-0.6,2.2-1.3,2.8-2.1c0.7-0.8,1.3-1.8,1.8-2.9l3.3,1.6
		c-1.1,3-3.2,5.3-6.4,6.9c-2.2,1.1-4.3,1.5-6.6,1.4c-2.2-0.2-4.3-1-6.2-2.5c-1.9-1.5-3.6-3.6-5-6.4c-1.4-2.7-2-5.3-2-7.8
		c0-2.5,0.6-4.6,1.8-6.5c1.2-1.9,2.8-3.3,4.9-4.3C86.8,129.4,88.3,128.9,89.7,128.8z"/>
	<path class="st0" d="M107.9,133l9.1-4.5l1.6,3.2l-9.1,4.5l4,8l11.1-5.5l1.6,3.2l-15.4,7.6l-12.5-25.2l15.1-7.5l1.1,3.4l-10.4,5.2
		L107.9,133z"/>
	<path class="st0" d="M138,121.7l-8.2,4.1l5.7,11.5l-4.2,2.1l-12.5-25.2l4.2-2.1l5.1,10.2l8.2-4.1l-5.1-10.2l4.2-2.1l12.5,25.2
		l-4.2,2.1L138,121.7z"/>
	<path class="st0" d="M167,117.7c-0.5,3.2-2.2,5.5-5.3,7.1c-3.1,1.5-6,1.6-8.8,0c-2.8-1.5-5.2-4.3-7.2-8.3c-2-4-2.7-7.6-2.3-10.8
		c0.5-3.2,2.2-5.6,5.3-7.1c3.1-1.5,6-1.5,8.8,0c2.8,1.5,5.2,4.3,7.2,8.3C166.7,111,167.5,114.6,167,117.7z M155.5,102.4
		c-1.6-1.2-3.3-1.3-5.2-0.4s-2.8,2.4-2.8,4.4c0,2,0.8,4.7,2.4,8c1.6,3.3,3.3,5.5,4.9,6.7c1.6,1.2,3.4,1.3,5.2,0.4
		c1.8-0.9,2.7-2.4,2.8-4.4c0-2-0.8-4.7-2.4-8C158.7,105.8,157.1,103.6,155.5,102.4z"/>
	<path class="st0" d="M164.2,91.5l4.2-2.1l10.8,21.6l11.3-5.6l1.3,3.8l-15,7.5L164.2,91.5z"/>
	<path class="st0" d="M210,96.7c-1.3,3-3.6,5.3-7,7l-6.2,3.1l-12.5-25.2l5.8-2.9c3.6-1.8,7-2.4,10.1-1.7c3.1,0.7,5.8,3.4,8.2,8.1
		C210.7,89.9,211.3,93.7,210,96.7z M198.4,80.9c-1.9-0.6-3.9-0.4-5.9,0.6l-2.3,1.2l9.3,18.7l2.4-1.2c4.5-2.3,5.2-6.6,2.1-12.9
		C202.1,83.7,200.3,81.6,198.4,80.9z"/>
	<path class="st0" d="M217.3,78.6l9.1-4.5l1.6,3.2l-9.1,4.5l4,8l11.1-5.5l1.6,3.2l-15.4,7.6l-12.5-25.2l15.1-7.5l1.1,3.4L213.6,71
		L217.3,78.6z"/>
	<path class="st0" d="M249.6,63.6c-0.5,1.7-1.4,3.2-2.9,4.6l12.6,7.4l-4.9,2.4l-11.5-7.2l-2.7,1.4l5.2,10.4l-4.2,2.1l-12.5-25.2
		l7-3.5c6.5-3.3,11-2.5,13.4,2.4C249.9,60.2,250.1,61.9,249.6,63.6z M241.8,58.1c-1.2-0.2-2.6,0.1-4.4,0.9l-3,1.5l4.3,8.6l3.1-1.6
		c1.7-0.8,2.7-1.8,3.2-2.9c0.5-1.1,0.4-2.5-0.4-4C243.9,59.2,242.9,58.3,241.8,58.1z"/>
</g>
</svg>
